<mxfile host="65bd71144e">
    <diagram id="o0JDRasFdCJ2PAL1D03f" name="Страница 1">
        <mxGraphModel dx="744" dy="441" grid="1" gridSize="10" guides="1" tooltips="1" connect="1" arrows="1" fold="1" page="1" pageScale="1" pageWidth="827" pageHeight="1169" math="0" shadow="0">
            <root>
                <mxCell id="0"/>
                <mxCell id="1" parent="0"/>
                <mxCell id="ig5HH6IMWsRLJwiWJtP3-1" value="&lt;b&gt;часы&lt;/b&gt;&lt;br&gt;измеряет время&lt;br&gt;&lt;i&gt;(код писал не я)&lt;/i&gt;" style="ellipse;whiteSpace=wrap;html=1;" parent="1" vertex="1">
                    <mxGeometry x="220" y="220" width="150" height="60" as="geometry"/>
                </mxCell>
                <mxCell id="ig5HH6IMWsRLJwiWJtP3-2" value="&lt;b&gt;измерение&lt;/b&gt;&lt;br&gt;результат разницы в единицах&lt;br&gt;(процесс)" style="ellipse;whiteSpace=wrap;html=1;fillColor=#f8cecc;strokeColor=#b85450;labelBackgroundColor=none;" parent="1" vertex="1">
                    <mxGeometry x="40" y="390" width="150" height="60" as="geometry"/>
                </mxCell>
                <mxCell id="ig5HH6IMWsRLJwiWJtP3-7" style="edgeStyle=none;rounded=0;orthogonalLoop=1;jettySize=auto;html=1;endArrow=none;endFill=0;startArrow=none;startFill=0;" parent="1" source="ig5HH6IMWsRLJwiWJtP3-4" target="ig5HH6IMWsRLJwiWJtP3-6" edge="1">
                    <mxGeometry relative="1" as="geometry"/>
                </mxCell>
                <mxCell id="ig5HH6IMWsRLJwiWJtP3-4" value="&lt;b style=&quot;font-family: &amp;#34;verdana&amp;#34; , sans-serif ; text-align: left&quot;&gt;1658921962&lt;/b&gt;" style="ellipse;whiteSpace=wrap;html=1;fillColor=default;" parent="1" vertex="1">
                    <mxGeometry x="470" y="330" width="80" height="50" as="geometry"/>
                </mxCell>
                <mxCell id="ig5HH6IMWsRLJwiWJtP3-10" style="edgeStyle=none;rounded=0;orthogonalLoop=1;jettySize=auto;html=1;endArrow=none;endFill=0;" parent="1" source="ig5HH6IMWsRLJwiWJtP3-5" target="ig5HH6IMWsRLJwiWJtP3-6" edge="1">
                    <mxGeometry relative="1" as="geometry"/>
                </mxCell>
                <mxCell id="ig5HH6IMWsRLJwiWJtP3-5" value="&lt;b style=&quot;font-family: verdana, sans-serif; text-align: left;&quot;&gt;1658921963&lt;/b&gt;" style="ellipse;whiteSpace=wrap;html=1;" parent="1" vertex="1">
                    <mxGeometry x="580" y="330" width="80" height="50" as="geometry"/>
                </mxCell>
                <mxCell id="ig5HH6IMWsRLJwiWJtP3-24" style="edgeStyle=none;rounded=0;orthogonalLoop=1;jettySize=auto;html=1;startArrow=none;startFill=0;endArrow=none;endFill=0;" parent="1" source="ig5HH6IMWsRLJwiWJtP3-6" target="ig5HH6IMWsRLJwiWJtP3-23" edge="1">
                    <mxGeometry relative="1" as="geometry"/>
                </mxCell>
                <mxCell id="FgeJi8kPj2tXXcMW5IML-4" style="edgeStyle=none;rounded=0;orthogonalLoop=1;jettySize=auto;html=1;endArrow=none;endFill=0;" parent="1" source="ig5HH6IMWsRLJwiWJtP3-6" target="ig5HH6IMWsRLJwiWJtP3-11" edge="1">
                    <mxGeometry relative="1" as="geometry"/>
                </mxCell>
                <mxCell id="aVBoo0zzkcQgEV05Bv0V-11" style="edgeStyle=none;rounded=0;orthogonalLoop=1;jettySize=auto;html=1;endArrow=none;endFill=0;" parent="1" source="ig5HH6IMWsRLJwiWJtP3-6" target="ig5HH6IMWsRLJwiWJtP3-31" edge="1">
                    <mxGeometry relative="1" as="geometry"/>
                </mxCell>
                <mxCell id="ig5HH6IMWsRLJwiWJtP3-6" value="&lt;b&gt;разница&lt;/b&gt;&lt;br&gt;&lt;i&gt;параметр_слева&lt;/i&gt;&amp;nbsp;- &lt;i&gt;параметр_справа&lt;/i&gt;" style="ellipse;whiteSpace=wrap;html=1;" parent="1" vertex="1">
                    <mxGeometry x="450" y="420" width="230" height="60" as="geometry"/>
                </mxCell>
                <mxCell id="ig5HH6IMWsRLJwiWJtP3-11" value="&lt;b&gt;секунда&lt;/b&gt;&lt;br&gt;1 разница время" style="ellipse;whiteSpace=wrap;html=1;" parent="1" vertex="1">
                    <mxGeometry x="720" y="330" width="120" height="80" as="geometry"/>
                </mxCell>
                <mxCell id="ig5HH6IMWsRLJwiWJtP3-14" value="&lt;b&gt;единица&lt;/b&gt;&lt;br&gt;&lt;i&gt;параметр_справа&lt;/i&gt;&amp;nbsp;== 1" style="ellipse;whiteSpace=wrap;html=1;" parent="1" vertex="1">
                    <mxGeometry x="40" y="310" width="170" height="70" as="geometry"/>
                </mxCell>
                <mxCell id="ig5HH6IMWsRLJwiWJtP3-16" value="&lt;b&gt;время&lt;/b&gt;&lt;br&gt;формат показаний часов&lt;br&gt;циклические связи надо составить" style="ellipse;whiteSpace=wrap;html=1;" parent="1" vertex="1">
                    <mxGeometry x="55" y="210" width="120" height="80" as="geometry"/>
                </mxCell>
                <mxCell id="FgeJi8kPj2tXXcMW5IML-5" style="edgeStyle=none;rounded=0;orthogonalLoop=1;jettySize=auto;html=1;endArrow=none;endFill=0;" parent="1" source="ig5HH6IMWsRLJwiWJtP3-23" target="ig5HH6IMWsRLJwiWJtP3-11" edge="1">
                    <mxGeometry relative="1" as="geometry"/>
                </mxCell>
                <mxCell id="ig5HH6IMWsRLJwiWJtP3-23" value="&lt;b&gt;1&lt;/b&gt;" style="ellipse;whiteSpace=wrap;html=1;" parent="1" vertex="1">
                    <mxGeometry x="620" y="520" width="40" height="35" as="geometry"/>
                </mxCell>
                <mxCell id="ig5HH6IMWsRLJwiWJtP3-26" value="&lt;b&gt;измерить&lt;/b&gt;&lt;br&gt;выполнить программу" style="ellipse;whiteSpace=wrap;html=1;" parent="1" vertex="1">
                    <mxGeometry x="40" y="680" width="120" height="80" as="geometry"/>
                </mxCell>
                <mxCell id="FgeJi8kPj2tXXcMW5IML-1" style="rounded=0;orthogonalLoop=1;jettySize=auto;html=1;endArrow=none;endFill=0;" parent="1" source="ig5HH6IMWsRLJwiWJtP3-31" target="ig5HH6IMWsRLJwiWJtP3-4" edge="1">
                    <mxGeometry relative="1" as="geometry"/>
                </mxCell>
                <mxCell id="FgeJi8kPj2tXXcMW5IML-2" style="edgeStyle=none;rounded=0;orthogonalLoop=1;jettySize=auto;html=1;endArrow=none;endFill=0;" parent="1" source="ig5HH6IMWsRLJwiWJtP3-31" target="ig5HH6IMWsRLJwiWJtP3-5" edge="1">
                    <mxGeometry relative="1" as="geometry"/>
                </mxCell>
                <mxCell id="FgeJi8kPj2tXXcMW5IML-3" style="edgeStyle=none;rounded=0;orthogonalLoop=1;jettySize=auto;html=1;endArrow=none;endFill=0;" parent="1" source="ig5HH6IMWsRLJwiWJtP3-31" target="ig5HH6IMWsRLJwiWJtP3-11" edge="1">
                    <mxGeometry relative="1" as="geometry"/>
                </mxCell>
                <mxCell id="ig5HH6IMWsRLJwiWJtP3-31" value="&lt;b&gt;время&lt;/b&gt;" style="ellipse;whiteSpace=wrap;html=1;" parent="1" vertex="1">
                    <mxGeometry x="535" y="237.5" width="60" height="52.5" as="geometry"/>
                </mxCell>
                <mxCell id="ig5HH6IMWsRLJwiWJtP3-34" value="засеки время" style="ellipse;whiteSpace=wrap;html=1;" parent="1" vertex="1">
                    <mxGeometry x="30" y="570" width="120" height="80" as="geometry"/>
                </mxCell>
                <mxCell id="ig5HH6IMWsRLJwiWJtP3-35" value="текущее время" style="ellipse;whiteSpace=wrap;html=1;" parent="1" vertex="1">
                    <mxGeometry x="40" y="460" width="120" height="80" as="geometry"/>
                </mxCell>
                <mxCell id="aVBoo0zzkcQgEV05Bv0V-1" style="rounded=0;orthogonalLoop=1;jettySize=auto;html=1;endArrow=none;endFill=0;" parent="1" source="FgeJi8kPj2tXXcMW5IML-6" target="ig5HH6IMWsRLJwiWJtP3-31" edge="1">
                    <mxGeometry relative="1" as="geometry"/>
                </mxCell>
                <mxCell id="aVBoo0zzkcQgEV05Bv0V-3" style="edgeStyle=none;rounded=0;orthogonalLoop=1;jettySize=auto;html=1;endArrow=none;endFill=0;" parent="1" source="FgeJi8kPj2tXXcMW5IML-6" target="ig5HH6IMWsRLJwiWJtP3-5" edge="1">
                    <mxGeometry relative="1" as="geometry"/>
                </mxCell>
                <mxCell id="aVBoo0zzkcQgEV05Bv0V-4" style="edgeStyle=none;rounded=0;orthogonalLoop=1;jettySize=auto;html=1;endArrow=none;endFill=0;" parent="1" source="FgeJi8kPj2tXXcMW5IML-6" target="ig5HH6IMWsRLJwiWJtP3-4" edge="1">
                    <mxGeometry relative="1" as="geometry"/>
                </mxCell>
                <mxCell id="FgeJi8kPj2tXXcMW5IML-6" value="&lt;b&gt;сохрани_узлы&lt;/b&gt;&lt;br&gt;python" style="ellipse;whiteSpace=wrap;html=1;" parent="1" vertex="1">
                    <mxGeometry x="800" y="210" width="100" height="50" as="geometry"/>
                </mxCell>
                <mxCell id="aVBoo0zzkcQgEV05Bv0V-6" style="edgeStyle=none;rounded=0;orthogonalLoop=1;jettySize=auto;html=1;endArrow=none;endFill=0;" parent="1" source="aVBoo0zzkcQgEV05Bv0V-5" target="ig5HH6IMWsRLJwiWJtP3-6" edge="1">
                    <mxGeometry relative="1" as="geometry"/>
                </mxCell>
                <mxCell id="aVBoo0zzkcQgEV05Bv0V-5" value="&lt;b&gt;выполни_с_параметрами&lt;/b&gt;&lt;br&gt;python" style="ellipse;whiteSpace=wrap;html=1;" parent="1" vertex="1">
                    <mxGeometry x="780" y="510" width="180" height="40" as="geometry"/>
                </mxCell>
                <mxCell id="aVBoo0zzkcQgEV05Bv0V-8" style="edgeStyle=none;rounded=0;orthogonalLoop=1;jettySize=auto;html=1;endArrow=none;endFill=0;" parent="1" source="aVBoo0zzkcQgEV05Bv0V-7" target="ig5HH6IMWsRLJwiWJtP3-11" edge="1">
                    <mxGeometry relative="1" as="geometry"/>
                </mxCell>
                <mxCell id="aVBoo0zzkcQgEV05Bv0V-7" value="&lt;b&gt;сохрани_определение&lt;br&gt;&lt;/b&gt;" style="ellipse;whiteSpace=wrap;html=1;" parent="1" vertex="1">
                    <mxGeometry x="770" y="435" width="160" height="30" as="geometry"/>
                </mxCell>
                <mxCell id="aVBoo0zzkcQgEV05Bv0V-10" style="edgeStyle=none;rounded=0;orthogonalLoop=1;jettySize=auto;html=1;endArrow=none;endFill=0;" parent="1" source="aVBoo0zzkcQgEV05Bv0V-9" target="ig5HH6IMWsRLJwiWJtP3-11" edge="1">
                    <mxGeometry relative="1" as="geometry"/>
                </mxCell>
                <mxCell id="aVBoo0zzkcQgEV05Bv0V-9" value="&lt;b&gt;выведи_определение&lt;/b&gt;" style="ellipse;whiteSpace=wrap;html=1;" parent="1" vertex="1">
                    <mxGeometry x="800" y="280" width="170" height="30" as="geometry"/>
                </mxCell>
            </root>
        </mxGraphModel>
    </diagram>
</mxfile>